<?xml version="1.0" encoding="UTF-8"?><svg id="a" xmlns="http://www.w3.org/2000/svg" viewBox="0 0 1860.8 1046.7"><defs><style>.b,.c{fill:none;}.d{fill:#fff;}.c{stroke:#fff;stroke-miterlimit:10;stroke-width:16px;}</style></defs><g><g><g><path class="d" d="M643.11,425.46v-136.27h40.88c20.25,0,36.4,10.9,36.4,34.07,0,7.59-1.17,18.88-12.85,26.86q-.19,.19-.19,.39v.19c9.93,4.48,20.05,15.18,20.05,34.65s-9.54,40.1-40.88,40.1h-43.41Zm34.85-80.4c14.21,0,22.19-5.45,22.19-19.66s-8.76-18.69-21.22-18.69h-18.1v38.35h17.13Zm2.34,64.05c15.57,0,27.06-3.7,27.06-24.33,0-17.33-12.26-22.58-24.72-22.58h-21.8v46.91h19.47Z"/><path class="d" d="M793.39,425.46v-119.14l-12.26-.39v-16.74h30.17v136.27h-17.91Z"/><path class="d" d="M957.89,425.46l-60.15-100.45v100.45h-17.71v-136.27h17.71l60.15,100.06v-100.06h17.91v136.27h-17.91Z"/><path class="d" d="M1108.56,425.46l-10.71-39.91h-35.82l-10.32,39.91h-19.66l36.01-136.27h23.16l37.96,136.27h-20.63Zm-29.01-107.07l-13.24,48.67h27.25l-14.02-48.67Z"/><path class="d" d="M1250.67,425.46v-63.27h-48.47v63.27h-17.72v-136.27h17.72v55.87h48.47v-55.87h17.52v136.27h-17.52Z"/><path class="d" d="M1403.48,425.46l-14.21-41.66c-.78,.19-1.75,.39-4.48,.39h-30.17v41.27h-17.72v-136.27h46.72c26.28,0,37.77,20.63,37.77,44.77,0,13.43-.19,32.51-15.77,43.99l15.96,47.5h-18.1Zm-22.58-58.4c22,0,22-21.22,22-33.09,0-21.61-9.93-27.06-24.72-27.06h-23.55v60.15h26.28Z"/><path class="d" d="M1489.33,425.46v-119.14l-12.26-.39v-16.74h30.17v136.27h-17.91Z"/><path class="d" d="M1640.01,425.46l-10.71-39.91h-35.82l-10.32,39.91h-19.66l36.01-136.27h23.16l37.96,136.27h-20.63Zm-29.01-107.07l-13.24,48.67h27.25l-14.02-48.67Z"/></g><g><path class="d" d="M832.29,652.32c-.49-9.15-1.07-20.14-.97-28.31h-.29c-2.24,7.69-4.96,15.86-8.27,24.91l-11.58,31.82h-6.42l-10.61-31.23c-3.11-9.24-5.74-17.71-7.59-25.49h-.19c-.19,8.17-.68,19.17-1.27,28.99l-1.75,28.12h-8.08l4.57-65.58h10.8l11.19,31.72c2.72,8.08,4.96,15.28,6.62,22.09h.29c1.65-6.62,3.99-13.82,6.91-22.09l11.68-31.72h10.8l4.09,65.58h-8.27l-1.65-28.8Z"/><path class="d" d="M886.87,615.54v65.58h-8.46v-65.58h8.46Z"/><path class="d" d="M924.82,681.12v-65.58h9.24l21.02,33.18c4.86,7.69,8.66,14.59,11.77,21.31l.19-.1c-.78-8.76-.97-16.73-.97-26.95v-27.44h7.98v65.58h-8.56l-20.82-33.28c-4.57-7.3-8.95-14.79-12.26-21.89l-.29,.1c.49,8.27,.68,16.15,.68,27.05v28.02h-7.98Z"/><path class="d" d="M1012,616.42c5.16-.78,11.29-1.36,18-1.36,12.16,0,20.82,2.82,26.56,8.17,5.84,5.35,9.24,12.94,9.24,23.55s-3.31,19.46-9.44,25.49c-6.13,6.13-16.25,9.44-28.99,9.44-6.03,0-11.09-.29-15.37-.78v-64.51Zm8.46,57.99c2.14,.39,5.25,.49,8.56,.49,18.1,0,27.92-10.12,27.92-27.83,.1-15.47-8.66-25.3-26.56-25.3-4.38,0-7.69,.39-9.92,.88v51.76Z"/><path class="d" d="M1152.2,622.74h-19.95v-7.2h48.55v7.2h-20.04v58.38h-8.56v-58.38Z"/><path class="d" d="M1219.72,615.54v27.44h31.72v-27.44h8.56v65.58h-8.56v-30.75h-31.72v30.75h-8.46v-65.58h8.46Z"/><path class="d" d="M1331.81,650.38h-25.49v23.64h28.41v7.1h-36.87v-65.58h35.42v7.1h-26.95v20.72h25.49v7.01Z"/><path class="d" d="M1412.66,616.42c5.16-.78,11.29-1.36,18-1.36,12.16,0,20.82,2.82,26.56,8.17,5.84,5.35,9.24,12.94,9.24,23.55s-3.31,19.46-9.44,25.49c-6.13,6.13-16.25,9.44-28.99,9.44-6.03,0-11.09-.29-15.37-.78v-64.51Zm8.46,57.99c2.14,.39,5.25,.49,8.56,.49,18.1,0,27.92-10.12,27.92-27.83,.1-15.47-8.66-25.3-26.56-25.3-4.38,0-7.69,.39-9.92,.88v51.76Z"/><path class="d" d="M1509.86,660.49l-6.81,20.63h-8.76l22.28-65.58h10.22l22.38,65.58h-9.05l-7.01-20.63h-23.25Zm21.5-6.62l-6.42-18.88c-1.46-4.28-2.43-8.17-3.4-11.97h-.19c-.97,3.89-2.04,7.88-3.31,11.87l-6.42,18.97h19.75Z"/><path class="d" d="M1586.92,622.74h-19.95v-7.2h48.55v7.2h-20.04v58.38h-8.56v-58.38Z"/><path class="d" d="M1649.28,660.49l-6.81,20.63h-8.76l22.28-65.58h10.22l22.38,65.58h-9.05l-7.01-20.63h-23.25Zm21.5-6.62l-6.42-18.88c-1.46-4.28-2.43-8.17-3.4-11.97h-.19c-.97,3.89-2.04,7.88-3.31,11.87l-6.42,18.97h19.75Z"/></g><g><path class="d" d="M796.08,586.89l-10.71-39.91h-35.82l-10.32,39.91h-19.66l36.01-136.27h23.17l37.96,136.27h-20.63Zm-29.01-107.07l-13.24,48.67h27.25l-14.02-48.67Z"/><path class="d" d="M925.73,586.89l-60.15-100.45v100.45h-17.71v-136.27h17.71l60.15,100.06v-100.06h17.91v136.27h-17.91Z"/><path class="d" d="M1052.27,586.89l-10.71-39.91h-35.82l-10.32,39.91h-19.66l36.01-136.27h23.16l37.96,136.27h-20.63Zm-29.01-107.07l-13.24,48.67h27.25l-14.02-48.67Z"/><path class="d" d="M1104.05,586.89v-136.27h17.72v120.11h52.56v16.16h-70.27Z"/><path class="d" d="M1243.24,576.57c6.23-1.17,13.63-4.87,13.63-20.83v-16.74c-5.65,3.89-14.6,6.62-24.14,6.62-26.47,0-44.58-15.38-44.58-41.85v-53.14h17.72v52.56c0,17.13,10.32,24.92,26.86,24.92,14.21,0,21.8-5.84,24.14-11.87v-65.6h17.71v105.9c0,19.27-7.2,31.15-26.09,33.29l-5.26-13.24Z"/><path class="d" d="M1336.48,586.89v-118.75h-29.78v-17.52h78.26v17.52h-30.76v118.75h-17.71Z"/><path class="d" d="M1420.97,586.89v-119.14l-12.26-.39v-16.74h30.17v136.27h-17.91Z"/><path class="d" d="M1550.62,582.41c-30.76,11.68-70.27,11.1-70.27-31.15v-62.49c0-21.22,6.62-29.01,16.94-35.23,12.65-7.4,33.29-6.23,48.47,1.56l-5.06,15.18c-6.81-2.53-13.63-3.5-20.05-3.5-10.9,0-22.58,5.26-22.58,20.25v63.85c0,24.33,25.7,22.58,49.64,15.18l2.92,16.35Z"/><path class="d" d="M1596.75,550.1c1.17,11.68,10.9,21.61,26.86,21.61,17.52,0,27.25-9.15,27.25-20.83,0-38.15-69.69-24.53-69.69-68.52,0-16.35,13.82-33.68,43.99-33.68,13.43,0,20.63,2.14,28.42,5.84,0,.19-3.31,9.73-5.65,16.74-7.2-2.92-14.21-4.67-22.58-4.67-16.94,0-25.7,7.01-25.11,17.13,1.36,23.75,70.08,19.08,70.08,65.6,0,21.61-13.24,39.71-46.53,39.71-30.17,0-45.36-19.47-45.94-36.79l18.88-2.14Z"/></g></g><g><polygon class="b" points="92.58 865.71 187.55 865.71 389.83 507.36 92.58 507.36 92.58 865.71"/><path class="d" d="M484.02,611.02c-9.37,0-17.79,4.02-23.65,10.43v-.05c0,.05-74.53,0-74.53,0l-108.72,188.92h43.24l90.5-156.73h42.92c4.36,12.5,16.25,21.47,30.23,21.47,17.69,0,32.02-14.34,32.02-32.02s-14.34-32.02-32.02-32.02Z"/><path class="d" d="M546.19,559.04c-5.54-9.55-15.87-15.98-27.71-15.98-17.69,0-32.02,14.34-32.02,32.02s14.34,32.02,32.02,32.02c11.84,0,22.16-6.43,27.71-15.98h104.11l-16.4-32.09h-87.71Z"/><path class="d" d="M551.06,296.38h-42.61c-32.38,58.02-64.72,116.23-97.99,173.73H92.57v-45.95h190.61l70.58-119.92c16.3-1.17,29.16-14.75,29.16-31.35s-14.08-31.44-31.44-31.44-31.44,14.08-31.44,31.44c0,4.8,1.08,9.35,3.01,13.43l-59.32,100.82H92.53V255.97h79.07l27.79,45.75c-1.03,3.14-1.59,6.49-1.59,9.97,0,17.69,14.34,32.02,32.02,32.02s32.02-14.34,32.02-32.02-14.34-32.02-32.02-32.02c-.19,0-.37,.01-.56,.01l.2-.15-26.13-42.88,31.57-52.54h73.67l18.88-31.91h-117.24l-39.91,66.47H92.69L165.34,85.24h187.33c36.62,62.25,71.83,125.4,108.63,187.6l-49.39,76.02-19.91,30.47c-15.76,2-27.95,15.45-27.95,31.76,0,17.69,14.34,32.02,32.02,32.02s32.02-14.34,32.02-32.02c0-4.9-1.1-9.54-3.07-13.69,26.64-41.01,52.7-82.09,79.13-123.38-43.75-71.73-84.53-146.01-126.88-218.69H139.66L56.05,218.06V901.62h111.87l-49.17,89.76h42.86c122.17-217.84,244.64-435.5,367.34-653.1,61.7,114.76,122.74,227.71,184.09,342.64h42.77c-68.48-127.36-137.5-256.99-204.76-384.54ZM187.55,865.71H92.58V507.36H389.83l-202.28,358.35Z"/></g></g><path class="d" d="M1754.27,229.17l-9.62-28.19c-.53,.13-1.19,.26-3.03,.26h-20.42v27.93h-11.99v-92.22h31.62c17.79,0,25.56,13.96,25.56,30.3,0,9.09-.13,22-10.67,29.77l10.8,32.14h-12.25Zm-15.28-39.52c14.89,0,14.89-14.36,14.89-22.4,0-14.62-6.72-18.31-16.73-18.31h-15.94v40.71h17.79Z"/><circle class="c" cx="1732.69" cy="183.06" r="72.05"/></svg>